<?xml version="1.0" encoding="iso-8859-1"?>
<!-- Uploaded to: SVG Repo, www.svgrepo.com, Generator: SVG Repo Mixer Tools -->
<!DOCTYPE svg PUBLIC "-//W3C//DTD SVG 1.1//EN" "http://www.w3.org/Graphics/SVG/1.1/DTD/svg11.dtd">
<svg fill="#000000" version="1.1" id="Capa_1" xmlns="http://www.w3.org/2000/svg" xmlns:xlink="http://www.w3.org/1999/xlink" 
	 width="800px" height="800px" viewBox="0 0 359.607 359.606"
	 xml:space="preserve">
<g>
	<path d="M303.934,40.65c-0.651-0.758-1.419-1.346-2.229-1.845c-0.214-0.53-0.469-1.054-0.786-1.553
		C281.002,6.088,233.275-3.374,200.771,17.396c-29.858,19.083-48.92,60.283-27.714,93.459c3.288,5.288,9.989,18.2,13.225,30.851
		c-0.879,0.082-1.763,0.25-2.624,0.594c-0.274,0.112-27.629,11.049-57.378,15.083c-36.645,4.984-59.57-2.208-68.101-21.337
		c-2.762-6.198-11.149-25.054-26.12-22.131c-26.305,5.17-31.938,85.724-31.962,86.527c-2.755,87.927,53.201,144.866,149.678,152.326
		c4.533,0.353,9.079,0.518,13.643,0.518c51.853,0,104.87-22.22,135.243-57.562c20.812-24.204,29.617-52.457,25.867-82.307
		c-0.013-0.25,0.023-0.499,0-0.755c-0.901-9.146-8.976-89.961-15.467-109.988c-0.024-0.082-0.049-0.155-0.067-0.226
		c2.284-1.065,7.423-2.101,10.991-2.825c10.717-2.162,24.04-4.85,32.352-15.138l7.271-9.003l-10.333-5.222
		C339.483,65.324,312.24,50.354,303.934,40.65z M284.473,283.541c-28.899,33.618-83.744,54.449-133.265,50.588
		c-86.594-6.697-134.862-55.21-132.417-133.096c0.53-16.977,8.884-58.901,16.279-67.782c1.23,1.397,3.325,4.366,6.025,10.416
		c26.223,58.815,126.259,24.752,146.194,17.274c-0.061,0.244-0.091,0.512-0.164,0.755c-1.349,4.335-4.098,7.277-8.656,9.28
		c-4.731,2.076-6.89,7.587-4.813,12.318c1.541,3.514,4.969,5.608,8.574,5.608c1.254,0,2.524-0.256,3.748-0.786
		c9.489-4.158,16.072-11.374,19.007-20.864c8.142-26.192-13.53-62.234-16.1-66.362c-14.568-22.807-0.408-53.436,21.964-67.733
		c23.376-14.946,60.191-7.925,74.312,14.172c0.676,1.054,1.528,1.921,2.491,2.601c0.158,15.438,1.041,30.844,2.009,46.253
		c0.067,1.096,0.329,2.058,0.67,2.956c-0.39,2.893-0.146,5.992,0.938,9.319c4.227,13.034,10.12,62.929,13.25,92.537
		c-0.535,1.583-0.67,3.324-0.268,5.078C310.753,234.133,303.921,260.92,284.473,283.541z"/>
	<path d="M215.507,222.491c-13.384-11.351-31.624-18.438-51.371-19.96c-5.188-0.329-9.646,3.452-10.047,8.604
		c-0.399,5.151,3.456,9.645,8.607,10.047c15.856,1.225,30.318,6.753,40.719,15.576c9.535,8.086,14.37,17.945,13.615,27.754
		c-0.756,9.804-7.046,18.804-17.714,25.331c-11.63,7.124-26.762,10.364-42.627,9.134c-5.185-0.354-9.646,3.465-10.044,8.604
		c-0.399,5.151,3.456,9.651,8.604,10.047c2.658,0.207,5.307,0.305,7.931,0.305c16.891,0,32.951-4.214,45.909-12.13
		c15.917-9.742,25.367-23.894,26.604-39.854C236.929,249.996,229.744,234.565,215.507,222.491z"/>
	<path d="M250.167,52.53c-12.068,0-12.068,18.706,0,18.706C262.229,71.236,262.229,52.53,250.167,52.53z"/>
</g>
</svg>